<svg version="1.1" id="Layer_1" xmlns="http://www.w3.org/2000/svg" xmlns:xlink="http://www.w3.org/1999/xlink" x="0px" y="0px"
	 width="100%" viewBox="0 0 400 300" enable-background="new 0 0 400 300" xml:space="preserve">
<path fill="#000000" opacity="1.000000" stroke="none" 
	d="
M220.000000,301.000000 
	C146.666687,301.000000 73.833359,301.000000 1.000029,301.000000 
	C1.000020,201.000031 1.000020,101.000061 1.000010,1.000070 
	C134.333282,1.000046 267.666565,1.000046 400.999878,1.000023 
	C400.999939,100.999931 400.999939,200.999863 400.999969,300.999878 
	C340.833344,301.000000 280.666656,301.000000 220.000000,301.000000 
M190.892395,115.091667 
	C190.892395,115.091667 190.772430,115.140228 190.896133,115.633186 
	C191.032318,115.733948 191.168518,115.834702 191.552856,116.517349 
	C192.756027,117.994179 193.959198,119.471016 195.329086,121.597221 
	C198.531128,125.753479 201.733154,129.909744 205.020050,134.572662 
	C205.259766,134.802765 205.499466,135.032867 205.837372,135.827179 
	C206.205383,136.234436 206.573395,136.641693 207.041550,137.677612 
	C207.682861,138.500595 208.324173,139.323578 209.067856,140.834763 
	C211.355972,144.911026 213.644089,148.987305 215.980865,153.816101 
	C216.098495,154.558273 216.216110,155.300430 216.504715,156.708862 
	C218.016556,162.506439 219.528397,168.304001 220.387024,173.822311 
	C219.629272,172.152512 218.871536,170.482697 218.083191,168.917450 
	C218.083191,168.917450 218.189346,168.941925 218.162766,168.236404 
	C217.453430,166.802048 216.744110,165.367706 215.999222,163.982941 
	C215.999222,163.982941 216.060226,163.982269 216.044388,163.380096 
	C215.691284,162.935501 215.338165,162.490906 214.936722,161.334518 
	C213.370941,158.695679 211.805161,156.056824 210.119614,152.779099 
	C207.714111,149.513962 205.308609,146.248810 202.778000,142.330887 
	C198.314133,137.147659 193.850266,131.964432 189.308655,126.834625 
	C189.308655,126.834625 189.357300,126.915451 189.178131,126.214127 
	C188.803391,125.928062 188.428650,125.642006 187.999084,124.822495 
	C187.361771,124.237625 186.724457,123.652756 185.957428,122.502396 
	C185.650208,122.290703 185.342987,122.079010 184.858337,121.235603 
	C183.649857,119.958740 182.441391,118.681877 181.028000,116.801796 
	C177.901443,113.079758 174.774887,109.357712 171.724609,105.328316 
	C171.614182,105.077324 171.436203,105.013496 171.052750,104.501251 
	C170.726105,104.242905 170.399475,103.984558 170.046387,103.949501 
	C170.046387,103.949501 170.270081,103.972206 170.119232,103.254326 
	C169.766663,102.944221 169.414108,102.634117 169.056824,101.690613 
	C167.974854,100.121559 166.892883,98.552505 165.819839,96.291763 
	C164.125534,91.546295 162.431229,86.800827 160.867126,81.172562 
	C160.815857,79.093430 160.764587,77.014297 160.973160,74.212593 
	C160.891022,73.239853 160.808868,72.267113 161.235443,70.983322 
	C161.254654,70.440376 161.273865,69.897438 161.628082,68.497925 
	C154.052200,59.635880 144.215485,58.283215 133.651535,60.693413 
	C122.929161,63.139755 114.374786,72.749947 112.587608,83.541946 
	C112.559853,83.988068 112.532089,84.434196 112.161888,85.425140 
	C112.156960,86.271233 112.152031,87.117332 111.869705,88.826057 
	C112.668030,94.272018 113.466362,99.717979 114.232613,105.856056 
	C114.468605,106.241623 114.704597,106.627182 114.865677,107.645180 
	C115.154945,108.188911 115.444206,108.732635 115.818840,109.130646 
	C115.818840,109.130646 115.667557,109.055588 115.719521,109.808510 
	C116.107704,110.424461 116.495880,111.040421 116.769928,111.810089 
	C116.769928,111.810089 116.914513,111.935593 116.903847,112.548553 
	C117.147308,112.857841 117.390778,113.167130 117.572731,113.488396 
	C117.572731,113.488396 117.529968,113.534210 117.626511,114.228348 
	C119.712135,117.788368 121.797752,121.348381 124.008965,125.583160 
	C124.323708,125.897919 124.638458,126.212677 124.829575,126.821167 
	C124.879463,127.072754 125.032570,127.194405 125.499275,127.889786 
	C129.602249,133.047272 133.705231,138.204742 137.979980,143.990219 
	C140.093811,146.380783 142.207642,148.771362 144.604218,151.817429 
	C149.692505,157.975403 154.780807,164.133362 159.995468,170.947784 
	C161.931335,173.756897 163.867203,176.566010 165.908218,180.035904 
	C167.413635,183.069870 168.919052,186.103821 170.488678,189.840668 
	C170.962280,190.894730 171.435867,191.948792 171.874588,193.847260 
	C171.843399,200.145676 172.007446,206.456223 171.617035,212.732285 
	C171.538559,213.994034 169.353928,215.124756 167.935593,215.782440 
	C167.802643,215.425507 167.669693,215.068573 167.776749,213.961807 
	C167.539536,212.121048 167.302338,210.280304 167.335480,207.794464 
	C167.143478,206.892639 166.951462,205.990814 166.771729,204.342850 
	C165.531998,201.239609 164.292267,198.136383 163.001846,194.337555 
	C161.986084,192.610306 160.970337,190.883057 159.893707,188.500580 
	C159.257584,187.629578 158.621475,186.758575 157.936050,185.373337 
	C157.683517,185.164413 157.430984,184.955490 157.180801,184.850067 
	C157.180801,184.850067 157.283234,184.834930 157.199173,184.258347 
	C156.820770,183.838791 156.442383,183.419235 156.076752,182.944046 
	C156.076752,182.944046 156.022125,182.927475 155.908142,182.255737 
	C152.671387,178.109116 149.434616,173.962494 146.089630,169.322525 
	C145.855438,169.093033 145.621262,168.863541 145.210373,168.170868 
	C145.025146,167.881744 144.772034,167.676224 144.244339,167.035629 
	C143.850800,166.671570 143.457245,166.307510 142.808426,165.314041 
	C140.604874,162.843124 138.401306,160.372208 135.984146,157.251495 
	C132.126511,152.683121 128.268875,148.114761 123.549126,142.525452 
	C123.549126,157.200958 123.501312,170.455444 123.562248,183.709442 
	C123.626320,197.644409 123.794464,211.578888 123.797234,226.347473 
	C124.327003,228.170349 124.856773,229.993210 125.595642,232.435440 
	C127.397957,234.476883 129.200287,236.518341 131.517899,239.125000 
	C139.588333,243.844803 146.272385,243.472626 153.557648,237.968979 
	C155.887497,236.208878 158.308426,234.569336 161.339417,233.043900 
	C172.552490,226.987671 183.765564,220.931442 195.679184,214.830429 
	C203.850357,210.110764 212.021530,205.391098 220.846878,200.560181 
	C240.994949,189.308334 261.157104,178.081512 281.262695,166.754227 
	C282.772156,165.903793 283.877563,164.336136 285.096588,163.094788 
	C285.096588,163.094788 285.102966,163.169083 285.681122,162.998230 
	C286.083832,162.347336 286.486511,161.696442 287.049011,160.990082 
	C287.049011,160.990082 286.995667,160.829590 287.545349,160.517944 
	C288.005768,159.365616 288.466187,158.213272 289.171997,156.644241 
	C289.171997,156.644241 289.142670,156.161530 289.607971,155.628922 
	C289.485199,152.417801 289.362457,149.206680 289.275604,145.422867 
	C289.051086,144.905594 288.826599,144.388306 288.462402,143.169693 
	C287.083862,141.413742 285.705322,139.657806 284.020691,137.304260 
	C283.047852,136.859543 282.074982,136.414841 280.853363,135.365768 
	C279.934875,134.847595 279.016418,134.329422 278.090179,133.885681 
	C278.090179,133.885681 278.164917,133.881790 277.789307,133.302261 
	C275.179321,131.918640 272.569366,130.535019 269.511993,128.656494 
	C267.584564,127.699295 265.657104,126.742088 263.333160,125.196434 
	C262.280548,124.697792 261.227936,124.199150 260.159241,123.787415 
	C260.159241,123.787415 260.247589,123.789284 259.876617,123.256363 
	C258.573242,122.583977 257.269836,121.911583 255.520889,120.926460 
	C255.348190,120.982124 255.175491,121.037796 254.581970,120.970436 
	C254.581970,120.970436 254.144135,120.947968 253.963120,120.394768 
	C253.660767,120.184746 253.358429,119.974724 253.100769,119.875992 
	C253.100769,119.875992 253.208649,119.823578 252.776581,119.270393 
	C249.882141,117.833252 246.987701,116.396118 243.841217,114.396164 
	C243.263992,114.251236 242.686768,114.106316 241.846985,113.335617 
	C230.865570,107.254112 219.884140,101.172615 208.522156,94.976593 
	C208.522156,94.976593 208.126343,94.940987 207.930786,94.420036 
	C207.618576,94.314857 207.306381,94.209671 206.576355,93.975914 
	C206.576355,93.975914 206.139679,93.955498 205.964050,93.441422 
	C205.698196,93.228859 205.432327,93.016296 205.105133,92.922501 
	C205.105133,92.922501 205.208710,92.837990 204.857376,92.311478 
	C203.911133,91.879982 202.964874,91.448486 202.011459,90.975197 
	C202.011459,90.975197 201.971619,90.989700 201.662521,90.488914 
	C201.114655,90.303345 200.566788,90.117783 200.018555,89.990143 
	C200.018555,89.990143 200.061676,89.951630 199.663239,89.402618 
	C191.379303,84.739006 183.095352,80.075401 174.438278,75.201721 
	C171.499802,86.583977 176.060074,94.986107 181.998276,103.002182 
	C181.998276,103.002182 181.987564,103.019066 182.065109,103.600449 
	C182.347092,103.855255 182.629059,104.110062 182.946350,104.759903 
	C182.946350,104.759903 183.265182,104.995804 183.372101,105.549438 
	C183.875137,106.086456 184.378159,106.623474 184.901978,107.061020 
	C184.901978,107.061020 184.801392,107.046524 184.943558,107.676735 
	C185.622375,108.476242 186.301178,109.275749 187.122711,110.695145 
	C188.065765,111.807076 189.008804,112.918999 189.993484,114.000916 
	C189.993484,114.000916 189.958115,114.030899 190.075348,114.577744 
	C190.361664,114.789871 190.647964,115.001991 190.892395,115.091667 
z"/>
<path fill="#B12BE8" opacity="1.000000" stroke="none" 
	d="
M125.288895,127.186127 
	C125.032570,127.194405 124.879463,127.072754 124.749039,126.381096 
	C124.406792,125.596817 124.145088,125.252609 123.883377,124.908401 
	C121.797752,121.348381 119.712135,117.788368 118.055573,113.773636 
	C124.509651,112.330666 130.547287,111.412392 136.555237,110.329437 
	C140.537979,109.611526 143.985336,109.903976 146.923630,113.256516 
	C148.097351,114.595726 150.480789,116.116447 151.904129,115.786781 
	C159.272247,114.080208 166.318726,111.440643 171.648331,105.635666 
	C174.774887,109.357712 177.901443,113.079758 180.953156,117.444366 
	C173.571075,122.960419 165.917725,127.000145 156.824432,127.705780 
	C154.038147,123.796135 150.863922,122.728157 146.293549,123.770676 
	C139.391434,125.345070 132.299911,126.089165 125.288895,127.186127 
z"/>
<path fill="#E62010" opacity="1.000000" stroke="none" 
	d="
M288.602112,143.871017 
	C288.826599,144.388306 289.051086,144.905594 289.197815,146.135345 
	C289.040497,148.917297 288.961029,150.986755 288.511902,153.066193 
	C278.503937,157.549942 268.904541,162.111618 259.190826,166.415222 
	C257.474518,167.175613 253.899384,167.611649 253.523651,166.921997 
	C250.130554,160.694214 246.578232,164.816071 243.250458,166.539948 
	C236.772934,169.895493 230.419525,173.490662 224.006973,176.565033 
	C223.795303,174.336945 224.018280,172.335968 223.301834,170.762817 
	C221.616669,167.062592 222.923264,165.180267 226.236145,163.392227 
	C232.933090,159.777679 239.425903,155.784927 246.216949,152.141800 
	C246.952957,152.894684 247.474915,153.453918 248.060043,154.363205 
	C250.766403,161.129364 250.781326,161.164566 257.206360,158.440323 
	C259.327179,157.541077 261.325134,156.356415 263.420502,155.391937 
	C271.805542,151.532471 280.206848,147.708267 288.602112,143.871017 
z"/>
<path fill="#9612DC" opacity="1.000000" stroke="none" 
	d="
M112.971420,82.976410 
	C114.374786,72.749947 122.929161,63.139755 133.651535,60.693413 
	C144.215485,58.283215 154.052200,59.635880 160.982330,68.852631 
	C157.277344,70.442932 154.147705,71.529922 151.171219,72.940140 
	C139.057419,78.679520 126.415756,82.336502 112.971420,82.976410 
z"/>
<path fill="#A117E6" opacity="1.000000" stroke="none" 
	d="
M112.779510,83.259178 
	C126.415756,82.336502 139.057419,78.679520 151.171219,72.940140 
	C154.147705,71.529922 157.277344,70.442932 160.814819,69.280914 
	C161.273865,69.897438 161.254654,70.440376 160.789062,71.486420 
	C160.466217,72.971397 160.589767,73.953278 160.713318,74.935165 
	C160.764587,77.014297 160.815857,79.093430 160.628784,81.908554 
	C159.579468,83.804604 159.025406,85.466858 157.912262,86.036377 
	C153.472702,88.307838 148.882492,90.293930 144.291687,92.253647 
	C143.281708,92.684784 141.794724,93.064278 140.945450,92.636871 
	C134.376663,89.331184 128.263229,91.807396 122.081169,93.813171 
	C114.762779,96.187630 114.045143,95.665710 113.974915,87.640610 
	C113.466225,86.475998 112.985283,85.678162 112.504333,84.880318 
	C112.532089,84.434196 112.559853,83.988068 112.779510,83.259178 
z"/>
<path fill="#AB24E8" opacity="1.000000" stroke="none" 
	d="
M171.686462,105.481995 
	C166.318726,111.440643 159.272247,114.080208 151.904129,115.786781 
	C150.480789,116.116447 148.097351,114.595726 146.923630,113.256516 
	C143.985336,109.903976 140.537979,109.611526 136.555237,110.329437 
	C130.547287,111.412392 124.509651,112.330666 118.007301,113.426575 
	C117.529968,113.534210 117.572731,113.488396 117.552643,113.195023 
	C117.326538,112.579628 117.120529,112.257607 116.914513,111.935593 
	C116.914513,111.935593 116.769928,111.810089 116.790421,111.359749 
	C116.429802,110.291466 116.048676,109.673531 115.667557,109.055588 
	C115.667557,109.055588 115.818840,109.130646 115.796051,108.886841 
	C115.495712,108.099602 115.218155,107.556175 114.940598,107.012741 
	C114.704597,106.627182 114.468605,106.241623 114.653687,105.378906 
	C121.861137,103.321411 128.615738,101.573082 135.456253,100.278847 
	C137.166428,99.955284 139.914978,100.480003 140.874832,101.671410 
	C144.198486,105.796883 147.404327,104.091812 151.061691,102.533531 
	C155.889862,100.476402 160.886642,98.814980 165.810928,96.983459 
	C166.892883,98.552505 167.974854,100.121559 169.207825,102.318665 
	C169.662582,103.288544 169.966339,103.630379 170.270081,103.972206 
	C170.270081,103.972206 170.046387,103.949501 170.207672,104.101280 
	C170.642868,104.547653 170.916763,104.842247 171.190674,105.136841 
	C171.436203,105.013496 171.614182,105.077324 171.686462,105.481995 
z"/>
<path fill="#E21209" opacity="1.000000" stroke="none" 
	d="
M224.014709,176.986572 
	C230.419525,173.490662 236.772934,169.895493 243.250458,166.539948 
	C246.578232,164.816071 250.130554,160.694214 253.523651,166.921997 
	C253.899384,167.611649 257.474518,167.175613 259.190826,166.415222 
	C268.904541,162.111618 278.503937,157.549942 288.551697,153.453613 
	C289.021637,154.607895 289.082153,155.384720 289.142670,156.161530 
	C289.142670,156.161530 289.171997,156.644241 288.826630,157.064819 
	C287.986053,158.600128 287.490845,159.714859 286.995667,160.829590 
	C286.995667,160.829590 287.049011,160.990082 286.725830,161.164032 
	C285.969452,161.948349 285.536194,162.558716 285.102966,163.169083 
	C285.102966,163.169083 285.096588,163.094788 284.808716,163.188995 
	C281.255676,164.235123 277.896362,164.950729 274.750793,166.203140 
	C271.370453,167.549042 268.245392,169.523010 264.907684,170.993027 
	C261.747467,172.384842 257.929657,175.167679 255.330093,174.357590 
	C249.642120,172.585052 246.252625,175.733978 242.113586,177.895233 
	C236.119919,181.024918 230.022079,183.955109 223.965591,186.519226 
	C223.979904,183.040909 223.997299,180.013733 224.014709,176.986572 
z"/>
<path fill="#A51EE3" opacity="1.000000" stroke="none" 
	d="
M165.815384,96.637611 
	C160.886642,98.814980 155.889862,100.476402 151.061691,102.533531 
	C147.404327,104.091812 144.198486,105.796883 140.874832,101.671410 
	C139.914978,100.480003 137.166428,99.955284 135.456253,100.278847 
	C128.615738,101.573082 121.861137,103.321411 114.669724,105.032845 
	C113.466362,99.717979 112.668030,94.272018 112.317299,88.411888 
	C113.177483,88.000938 113.590073,88.004158 114.002663,88.007370 
	C114.045143,95.665710 114.762779,96.187630 122.081169,93.813171 
	C128.263229,91.807396 134.376663,89.331184 140.945450,92.636871 
	C141.794724,93.064278 143.281708,92.684784 144.291687,92.253647 
	C148.882492,90.293930 153.472702,88.307838 157.912262,86.036377 
	C159.025406,85.466858 159.579468,83.804604 160.563690,82.349960 
	C162.431229,86.800827 164.125534,91.546295 165.815384,96.637611 
z"/>
<path fill="#CB48EF" opacity="1.000000" stroke="none" 
	d="
M159.869095,170.291336 
	C154.780807,164.133362 149.692505,157.975403 144.890289,151.414520 
	C154.114426,149.344284 163.052490,147.676971 172.158691,146.289032 
	C173.885849,148.377518 175.444824,150.186615 177.172638,152.283081 
	C179.566055,155.704559 181.790649,158.838684 183.667374,162.130890 
	C176.639908,163.864685 169.926025,165.314835 163.309418,167.121231 
	C161.973709,167.485901 161.006302,169.199600 159.869095,170.291336 
z"/>
<path fill="#DC0A08" opacity="1.000000" stroke="none" 
	d="
M223.968674,186.970398 
	C230.022079,183.955109 236.119919,181.024918 242.113586,177.895233 
	C246.252625,175.733978 249.642120,172.585052 255.330093,174.357590 
	C257.929657,175.167679 261.747467,172.384842 264.907684,170.993027 
	C268.245392,169.523010 271.370453,167.549042 274.750793,166.203140 
	C277.896362,164.950729 281.255676,164.235123 284.845825,163.192535 
	C283.877563,164.336136 282.772156,165.903793 281.262695,166.754227 
	C261.157104,178.081512 240.994949,189.308334 220.496521,200.233475 
	C220.560135,197.570068 220.974106,195.233353 221.619720,193.003784 
	C222.557144,191.064087 223.262909,189.017242 223.968674,186.970398 
z"/>
<path fill="#0CC9C7" opacity="1.000000" stroke="none" 
	d="
M163.052536,195.033142 
	C164.292267,198.136383 165.531998,201.239609 166.590775,205.009583 
	C165.427231,207.500946 164.429840,209.317780 163.465500,211.151993 
	C162.012985,213.914780 159.902145,216.553909 159.316422,219.493729 
	C158.580566,223.186996 156.653687,224.877502 153.432129,226.068695 
	C148.915527,227.738739 144.321136,229.358383 140.110626,231.645142 
	C136.799469,233.443420 134.018875,236.218582 131.002594,238.559814 
	C129.200287,236.518341 127.397957,234.476883 125.632385,231.836258 
	C125.756546,230.154755 125.843964,229.072418 126.250229,227.846069 
	C129.052994,226.410599 131.499451,225.040054 134.028061,223.843018 
	C140.861725,220.607956 147.752747,217.493591 154.573257,214.231476 
	C157.053741,213.045090 157.794434,211.238068 157.523468,208.194412 
	C157.331039,206.033234 158.775116,202.726669 160.545700,201.615585 
	C163.488907,199.768692 163.532944,197.720322 163.052536,195.033142 
z"/>
<path fill="#CB48EF" opacity="1.000000" stroke="none" 
	d="
M210.239380,153.417984 
	C211.805161,156.056824 213.370941,158.695679 215.041336,161.961090 
	C215.450714,163.052536 215.755478,163.517410 216.060226,163.982269 
	C216.060226,163.982269 215.999222,163.982941 216.033493,164.332001 
	C216.774963,166.101349 217.482147,167.521637 218.189346,168.941925 
	C218.189346,168.941925 218.083191,168.917450 218.089081,169.299988 
	C218.074112,171.123154 218.053238,172.563782 217.670410,174.067413 
	C210.212082,176.747467 203.115738,179.364517 195.998184,181.620941 
	C194.655197,178.834717 193.333420,176.409149 191.947357,173.640350 
	C190.590714,170.862946 189.298355,168.428787 188.394318,165.990845 
	C195.064102,163.507828 201.440979,161.233810 207.553696,158.391647 
	C208.923615,157.754684 209.368591,155.128418 210.239380,153.417984 
z"/>
<path fill="#0ED2BF" opacity="1.000000" stroke="none" 
	d="
M163.027191,194.685349 
	C163.532944,197.720322 163.488907,199.768692 160.545700,201.615585 
	C158.775116,202.726669 157.331039,206.033234 157.523468,208.194412 
	C157.794434,211.238068 157.053741,213.045090 154.573257,214.231476 
	C147.752747,217.493591 140.861725,220.607956 134.028061,223.843018 
	C131.499451,225.040054 129.052994,226.410599 126.029205,227.509888 
	C125.339844,223.873184 125.190361,220.428604 125.413345,216.966827 
	C133.108749,213.816772 140.421844,210.660645 147.757721,207.558365 
	C153.729385,205.033020 154.402206,203.936920 153.291077,197.332397 
	C152.735275,194.028717 153.596619,191.830460 157.095963,190.936646 
	C158.132812,190.671799 159.006256,189.767227 159.954590,189.155792 
	C160.970337,190.883057 161.986084,192.610306 163.027191,194.685349 
z"/>
<path fill="#BD38EB" opacity="1.000000" stroke="none" 
	d="
M125.394089,127.537956 
	C132.299911,126.089165 139.391434,125.345070 146.293549,123.770676 
	C150.863922,122.728157 154.038147,123.796135 156.992584,127.991158 
	C159.225906,131.044754 161.113693,133.520264 162.650116,136.151321 
	C159.541107,136.899490 156.730026,137.314026 154.037064,138.122192 
	C148.593521,139.755798 143.214096,141.603073 137.808212,143.362244 
	C133.705231,138.204742 129.602249,133.047272 125.394089,127.537956 
z"/>
<path fill="#C540EE" opacity="1.000000" stroke="none" 
	d="
M210.179504,153.098541 
	C209.368591,155.128418 208.923615,157.754684 207.553696,158.391647 
	C201.440979,161.233810 195.064102,163.507828 188.232040,165.717865 
	C186.459366,164.290024 185.237305,163.131409 184.015244,161.972809 
	C181.790649,158.838684 179.566055,155.704559 177.579956,152.282959 
	C181.236023,150.985550 184.717728,150.150360 188.056091,148.924683 
	C193.057938,147.088287 197.959122,144.977661 202.903107,142.983658 
	C205.308609,146.248810 207.714111,149.513962 210.179504,153.098541 
z"/>
<path fill="#BD38EB" opacity="1.000000" stroke="none" 
	d="
M202.840546,142.657272 
	C197.959122,144.977661 193.057938,147.088287 188.056091,148.924683 
	C184.717728,150.150360 181.236023,150.985550 177.411133,151.995605 
	C175.444824,150.186615 173.885849,148.377518 171.992569,146.001862 
	C170.103439,143.293381 168.548584,141.151474 167.411942,139.007141 
	C173.598877,136.811813 179.501190,134.901154 185.062119,132.269211 
	C186.947098,131.377060 187.969711,128.662796 189.386398,126.781204 
	C193.850266,131.964432 198.314133,137.147659 202.840546,142.657272 
z"/>
<path fill="#0FBFD1" opacity="1.000000" stroke="none" 
	d="
M131.260254,238.842407 
	C134.018875,236.218582 136.799469,233.443420 140.110626,231.645142 
	C144.321136,229.358383 148.915527,227.738739 153.432129,226.068695 
	C156.653687,224.877502 158.580566,223.186996 159.316422,219.493729 
	C159.902145,216.553909 162.012985,213.914780 163.465500,211.151993 
	C164.429840,209.317780 165.427231,207.500946 166.584625,205.382660 
	C166.951462,205.990814 167.143478,206.892639 167.197174,208.535492 
	C167.218140,211.088211 167.377441,212.899933 167.536743,214.711639 
	C167.669693,215.068573 167.802643,215.425507 168.017990,216.489990 
	C167.222092,219.789612 166.577393,222.493591 165.403503,224.944046 
	C164.080109,227.706619 162.280289,230.240997 160.687683,232.874619 
	C158.308426,234.569336 155.887497,236.208878 153.557648,237.968979 
	C146.272385,243.472626 139.588333,243.844803 131.260254,238.842407 
z"/>
<path fill="#E53017" opacity="1.000000" stroke="none" 
	d="
M223.965591,186.519226 
	C223.262909,189.017242 222.557144,191.064087 221.606232,192.608734 
	C221.254150,186.104874 221.147202,180.103226 221.040253,174.101578 
	C219.528397,168.304001 218.016556,162.506439 216.677612,156.260986 
	C217.230026,155.204514 217.609543,154.595917 218.345154,153.926514 
	C226.136307,150.241913 233.571350,146.618118 241.284485,143.162979 
	C242.382568,144.547195 243.202591,145.762756 244.188309,147.277008 
	C244.903656,149.033157 245.453278,150.490662 246.002899,151.948151 
	C239.425903,155.784927 232.933090,159.777679 226.236145,163.392227 
	C222.923264,165.180267 221.616669,167.062592 223.301834,170.762817 
	C224.018280,172.335968 223.795303,174.336945 224.006989,176.565033 
	C223.997299,180.013733 223.979904,183.040909 223.965591,186.519226 
z"/>
<path fill="#0FDAB6" opacity="1.000000" stroke="none" 
	d="
M159.924149,188.828186 
	C159.006256,189.767227 158.132812,190.671799 157.095963,190.936646 
	C153.596619,191.830460 152.735275,194.028717 153.291077,197.332397 
	C154.402206,203.936920 153.729385,205.033020 147.757721,207.558365 
	C140.421844,210.660645 133.108749,213.816772 125.398682,216.523743 
	C123.348038,209.465317 127.323105,206.436462 132.586884,204.207458 
	C137.315262,202.205154 142.063187,200.243866 146.739182,198.124802 
	C150.031708,196.632690 149.993698,194.155151 148.919617,191.024963 
	C148.206696,188.947266 147.678116,186.159454 148.503540,184.341873 
	C149.999313,181.048141 153.268402,182.284622 156.022125,182.927475 
	C156.022125,182.927475 156.076752,182.944046 156.123505,183.256592 
	C156.541245,183.991058 156.912231,184.412994 157.283234,184.834930 
	C157.283234,184.834930 157.180801,184.850067 157.266327,185.021927 
	C157.499527,185.483047 157.710709,185.714310 157.985352,185.887573 
	C158.621475,186.758575 159.257584,187.629578 159.924149,188.828186 
z"/>
<path fill="#12E0AD" opacity="1.000000" stroke="none" 
	d="
M155.965134,182.591614 
	C153.268402,182.284622 149.999313,181.048141 148.503540,184.341873 
	C147.678116,186.159454 148.206696,188.947266 148.919617,191.024963 
	C149.993698,194.155151 150.031708,196.632690 146.739182,198.124802 
	C142.063187,200.243866 137.315262,202.205154 132.586884,204.207458 
	C127.323105,206.436462 123.348038,209.465317 125.026215,216.540924 
	C125.190361,220.428604 125.339844,223.873184 125.710350,227.653931 
	C125.843964,229.072418 125.756546,230.154755 125.527832,231.526581 
	C124.856773,229.993210 124.327003,228.170349 123.851562,225.521240 
	C123.927162,215.208618 123.884201,205.721344 124.014015,196.236450 
	C124.047302,193.804550 124.626015,191.380127 124.975357,188.980255 
	C124.996559,189.008255 125.041451,189.062256 125.027946,189.491486 
	C125.009521,190.751816 124.981163,191.583542 125.003441,192.413895 
	C125.159462,198.229706 126.253166,198.794678 131.529251,196.027283 
	C134.319199,194.563889 137.253296,193.377426 140.063644,191.950378 
	C145.465332,189.207504 145.577560,188.293182 143.441925,182.591965 
	C142.774033,180.808960 142.916718,177.015396 143.739502,176.673767 
	C147.477737,175.121628 146.260864,172.561005 145.992340,169.983765 
	C146.061325,169.928391 146.197845,169.815887 146.197845,169.815887 
	C149.434616,173.962494 152.671387,178.109116 155.965134,182.591614 
z"/>
<path fill="#1AF296" opacity="1.000000" stroke="none" 
	d="
M124.954147,188.952271 
	C124.626015,191.380127 124.047302,193.804550 124.014015,196.236450 
	C123.884201,205.721344 123.927162,215.208618 123.911514,225.104294 
	C123.794464,211.578888 123.626320,197.644409 123.562248,183.709442 
	C123.501312,170.455444 123.549126,157.200958 123.549126,142.525452 
	C128.268875,148.114761 132.126511,152.683121 135.753937,157.681580 
	C129.267334,163.233383 129.267334,163.233383 133.179794,170.404266 
	C135.728043,175.074783 135.449753,177.243011 130.625381,179.014297 
	C125.498070,180.896790 124.373940,184.233337 124.954147,188.952271 
z"/>
<path fill="#B731EB" opacity="1.000000" stroke="none" 
	d="
M189.347534,126.807915 
	C187.969711,128.662796 186.947098,131.377060 185.062119,132.269211 
	C179.501190,134.901154 173.598877,136.811813 167.142517,138.846725 
	C165.303741,137.791077 164.152618,136.893433 163.001480,135.995773 
	C161.113693,133.520264 159.225906,131.044754 157.169983,128.283844 
	C165.917725,127.000145 173.571075,122.960419 181.055603,117.745972 
	C182.441391,118.681877 183.649857,119.958740 185.092285,121.775345 
	C185.579880,122.566017 185.833511,122.816948 186.087143,123.067886 
	C186.724457,123.652756 187.361771,124.237625 188.192337,125.389984 
	C188.709488,126.276802 189.033386,126.596130 189.357300,126.915451 
	C189.357300,126.915451 189.308655,126.834625 189.347534,126.807915 
z"/>
<path fill="#E770F2" opacity="1.000000" stroke="none" 
	d="
M161.013550,232.959259 
	C162.280289,230.240997 164.080109,227.706619 165.403503,224.944046 
	C166.577393,222.493591 167.222092,219.789612 168.120377,216.756714 
	C169.353928,215.124756 171.538559,213.994034 171.617035,212.732285 
	C172.007446,206.456223 171.843399,200.145676 172.213287,193.635574 
	C173.053635,196.295746 173.555298,199.167603 174.043457,202.494659 
	C173.963379,213.849701 175.775803,215.181458 186.398468,212.036758 
	C186.715088,211.943024 187.031509,211.745392 187.343216,211.754852 
	C189.573334,211.822388 191.802185,211.931122 194.069946,212.326996 
	C194.398514,213.376541 194.688568,214.125870 194.978638,214.875214 
	C183.765564,220.931442 172.552490,226.987671 161.013550,232.959259 
z"/>
<path fill="#DC58F4" opacity="1.000000" stroke="none" 
	d="
M192.011642,173.983582 
	C193.333420,176.409149 194.655197,178.834717 196.123947,181.914520 
	C196.514679,183.378281 196.758438,184.187820 196.585144,185.004807 
	C187.586868,186.387436 179.005661,187.762619 170.424454,189.137787 
	C168.919052,186.103821 167.413635,183.069870 166.116577,179.402588 
	C174.887161,177.174042 183.449402,175.578812 192.011642,173.983582 
z"/>
<path fill="#E53017" opacity="1.000000" stroke="none" 
	d="
M288.532257,143.520355 
	C280.206848,147.708267 271.805542,151.532471 263.420502,155.391937 
	C261.325134,156.356415 259.327179,157.541077 257.206360,158.440323 
	C250.781326,161.164566 250.766403,161.129364 248.336243,154.143036 
	C255.368607,150.166626 262.088593,146.538315 269.040894,143.429520 
	C273.973755,141.223724 279.220276,139.719345 284.326782,137.901871 
	C285.705322,139.657806 287.083862,141.413742 288.532257,143.520355 
z"/>
<path fill="#DC58F4" opacity="1.000000" stroke="none" 
	d="
M195.328918,214.852814 
	C194.688568,214.125870 194.398514,213.376541 194.355865,212.120987 
	C196.070221,207.409134 197.537186,203.203491 199.408142,198.992188 
	C204.861008,197.119293 210.097626,195.636429 214.910522,193.285965 
	C220.722229,190.447723 222.279907,179.327301 218.032379,174.004425 
	C218.053238,172.563782 218.074112,171.123154 218.104370,169.247711 
	C218.871536,170.482697 219.629272,172.152512 220.713638,173.961945 
	C221.147202,180.103226 221.254150,186.104874 221.374588,192.501587 
	C220.974106,195.233353 220.560135,197.570068 220.169434,200.289093 
	C212.021530,205.391098 203.850357,210.110764 195.328918,214.852814 
z"/>
<path fill="#D450F1" opacity="1.000000" stroke="none" 
	d="
M191.947357,173.640350 
	C183.449402,175.578812 174.887161,177.174042 166.063995,179.072205 
	C163.867203,176.566010 161.931335,173.756897 159.932281,170.619568 
	C161.006302,169.199600 161.973709,167.485901 163.309418,167.121231 
	C169.926025,165.314835 176.639908,163.864685 183.667374,162.130890 
	C185.237305,163.131409 186.459366,164.290024 187.843704,165.721619 
	C189.298355,168.428787 190.590714,170.862946 191.947357,173.640350 
z"/>
<path fill="#F19247" opacity="1.000000" stroke="none" 
	d="
M181.980560,103.007912 
	C176.060074,94.986107 171.499802,86.583977 174.438278,75.201721 
	C183.095352,80.075401 191.379303,84.739006 199.442627,89.686371 
	C195.106567,91.501205 191.036331,93.171707 186.863174,94.524818 
	C182.546982,95.924301 180.736816,98.526230 181.980560,103.007912 
z"/>
<path fill="#E360F6" opacity="1.000000" stroke="none" 
	d="
M170.456573,189.489227 
	C179.005661,187.762619 187.586868,186.387436 196.810333,185.318756 
	C197.963684,189.419037 198.474792,193.212845 198.556671,197.004761 
	C190.103958,198.681747 182.080460,200.360611 174.056946,202.039459 
	C173.555298,199.167603 173.053635,196.295746 172.230728,193.213379 
	C171.435867,191.948792 170.962280,190.894730 170.456573,189.489227 
z"/>
<path fill="#EC642F" opacity="1.000000" stroke="none" 
	d="
M204.935196,134.065994 
	C201.733154,129.909744 198.531128,125.753479 195.466980,121.033951 
	C202.416199,116.306236 209.227539,112.141785 216.312592,108.163307 
	C218.736008,110.889557 220.885681,113.429840 223.143250,116.230423 
	C223.477661,117.005188 223.704208,117.519646 223.567596,118.095894 
	C218.419342,120.630325 213.743439,123.353882 208.815506,125.498276 
	C204.679276,127.298164 203.094513,129.709763 205.024124,133.989319 
	C204.993576,134.013809 204.935196,134.065994 204.935196,134.065994 
z"/>
<path fill="#C540EE" opacity="1.000000" stroke="none" 
	d="
M162.650116,136.151321 
	C164.152618,136.893433 165.303741,137.791077 166.724304,138.849152 
	C168.548584,141.151474 170.103439,143.293381 171.824402,145.722473 
	C163.052490,147.676971 154.114426,149.344284 144.748932,151.086761 
	C142.207642,148.771362 140.093811,146.380783 137.894104,143.676239 
	C143.214096,141.603073 148.593521,139.755798 154.037064,138.122192 
	C156.730026,137.314026 159.541107,136.899490 162.650116,136.151321 
z"/>
<path fill="#EA4B24" opacity="1.000000" stroke="none" 
	d="
M215.932205,153.063568 
	C213.644089,148.987305 211.355972,144.911026 209.025482,140.132935 
	C208.988373,138.954590 208.993637,138.478073 209.311066,137.850784 
	C211.468491,136.646423 213.263824,135.490692 215.168671,134.558838 
	C220.413773,131.992889 225.704727,129.520737 231.119537,127.203140 
	C231.471710,127.636589 231.711472,127.844223 232.148712,128.303772 
	C233.229446,130.352432 234.142273,132.115051 234.811691,134.144577 
	C230.736618,136.272507 226.866959,138.059921 223.082489,140.012466 
	C217.867249,142.703201 213.708389,146.053619 216.066711,152.944000 
	C216.021835,152.983810 215.932205,153.063568 215.932205,153.063568 
z"/>
<path fill="#EA3D1C" opacity="1.000000" stroke="none" 
	d="
M284.173737,137.603058 
	C279.220276,139.719345 273.973755,141.223724 269.040894,143.429520 
	C262.088593,146.538315 255.368607,150.166626 248.273071,153.792969 
	C247.474915,153.453918 246.952957,152.894684 246.216949,152.141800 
	C245.453278,150.490662 244.903656,149.033157 244.567902,147.261490 
	C249.183746,145.085999 253.535721,143.093338 257.999420,141.394104 
	C264.702515,138.842361 270.278168,133.244446 278.164917,133.881790 
	C278.164917,133.881790 278.090179,133.885681 278.164062,134.189987 
	C279.192657,134.986237 280.147400,135.478180 281.102142,135.970139 
	C282.074982,136.414841 283.047852,136.859543 284.173737,137.603058 
z"/>
<path fill="#F07335" opacity="1.000000" stroke="none" 
	d="
M216.038864,107.977341 
	C209.227539,112.141785 202.416199,116.306236 195.383621,120.709267 
	C193.959198,119.471016 192.756027,117.994179 191.462585,116.086433 
	C191.306107,115.348717 191.106140,115.176949 190.772430,115.140228 
	C190.772430,115.140228 190.892395,115.091667 190.786652,114.926346 
	C190.439987,114.517654 190.199051,114.274277 189.958115,114.030899 
	C189.958115,114.030899 189.993484,114.000916 190.006531,113.645897 
	C191.363876,111.801895 192.457245,109.901680 194.098877,108.899994 
	C199.303085,105.724510 204.712006,102.884544 210.316193,100.108345 
	C212.406677,102.860344 214.222778,105.418839 216.038864,107.977341 
z"/>
<path fill="#EA4B24" opacity="1.000000" stroke="none" 
	d="
M277.977112,133.592026 
	C270.278168,133.244446 264.702515,138.842361 257.999420,141.394104 
	C253.535721,143.093338 249.183746,145.085999 244.402191,146.962830 
	C243.202591,145.762756 242.382568,144.547195 241.282990,142.829941 
	C241.004791,141.884003 241.006180,141.439743 241.366577,140.929871 
	C251.136856,136.959976 260.548126,133.055695 269.959381,129.151428 
	C272.569366,130.535019 275.179321,131.918640 277.977112,133.592026 
z"/>
<path fill="#F19247" opacity="1.000000" stroke="none" 
	d="
M216.312592,108.163307 
	C214.222778,105.418839 212.406677,102.860344 210.287827,99.757080 
	C209.624283,97.838577 209.263504,96.464844 208.902725,95.091110 
	C219.884140,101.172615 230.865570,107.254112 241.627350,113.499603 
	C234.682938,109.647865 228.998886,113.921959 223.035370,115.970123 
	C220.885681,113.429840 218.736008,110.889557 216.312592,108.163307 
z"/>
<path fill="#17EC9E" opacity="1.000000" stroke="none" 
	d="
M124.975357,188.980255 
	C124.373940,184.233337 125.498070,180.896790 130.625381,179.014297 
	C135.449753,177.243011 135.728043,175.074783 133.179794,170.404266 
	C129.267334,163.233383 129.267334,163.233383 135.860733,158.006485 
	C138.401306,160.372208 140.604874,162.843124 142.887665,165.680008 
	C142.966888,166.045975 142.873505,166.151611 142.509827,166.132843 
	C135.420502,168.043365 134.345871,170.952316 138.338577,176.784393 
	C140.071732,179.315964 141.422836,182.309830 138.278198,184.028778 
	C134.174896,186.271774 129.481140,187.434631 125.041451,189.062256 
	C125.041451,189.062256 124.996559,189.008255 124.975357,188.980255 
z"/>
<path fill="#EC5628" opacity="1.000000" stroke="none" 
	d="
M269.735687,128.903961 
	C260.548126,133.055695 251.136856,136.959976 241.196167,140.650818 
	C239.439468,138.629822 238.212189,136.822250 237.307541,134.868271 
	C239.099701,133.973083 240.554657,133.193924 242.041306,132.480896 
	C248.104797,129.572678 254.177979,126.684723 260.247589,123.789291 
	C260.247589,123.789284 260.159241,123.787415 260.244629,124.129547 
	C261.463257,124.909409 262.596466,125.347145 263.729675,125.784889 
	C265.657104,126.742088 267.584564,127.699295 269.735687,128.903961 
z"/>
<path fill="#F07C3A" opacity="1.000000" stroke="none" 
	d="
M208.712433,95.033852 
	C209.263504,96.464844 209.624283,97.838577 210.013428,99.563583 
	C204.712006,102.884544 199.303085,105.724510 194.098877,108.899994 
	C192.457245,109.901680 191.363876,111.801895 189.985718,113.660904 
	C189.008804,112.918999 188.065765,111.807076 186.996704,110.059769 
	C186.180908,108.631775 185.491150,107.839149 184.801392,107.046524 
	C184.801392,107.046524 184.901978,107.061020 184.929901,106.750885 
	C184.975952,105.961357 184.994110,105.481979 185.357544,104.930984 
	C192.136856,101.241318 198.570877,97.623253 205.288635,93.993408 
	C205.761459,93.972923 205.950577,93.964211 206.139679,93.955498 
	C206.139679,93.955498 206.576355,93.975914 206.947693,94.213531 
	C207.560959,94.659225 207.830063,94.822510 208.126343,94.940987 
	C208.126343,94.940987 208.522156,94.976593 208.712433,95.033852 
z"/>
<path fill="#F08641" opacity="1.000000" stroke="none" 
	d="
M205.004913,94.005188 
	C198.570877,97.623253 192.136856,101.241318 185.066071,104.930946 
	C184.041275,105.000275 183.653229,104.998039 183.265182,104.995804 
	C183.265182,104.995804 182.946350,104.759903 182.815033,104.311462 
	C182.451675,103.581703 182.219620,103.300385 181.987564,103.019066 
	C181.987564,103.019066 181.998276,103.002182 181.989410,103.005051 
	C180.736816,98.526230 182.546982,95.924301 186.863174,94.524818 
	C191.036331,93.171707 195.106567,91.501205 199.641846,89.960876 
	C200.061676,89.951630 200.018555,89.990143 200.213470,90.170456 
	C200.929459,90.563744 201.450546,90.776718 201.971619,90.989700 
	C201.971619,90.989700 202.011459,90.975197 202.191864,91.267967 
	C203.317764,91.986488 204.263229,92.412239 205.208710,92.837990 
	C205.208710,92.837990 205.105133,92.922501 205.083252,93.162384 
	C205.042557,93.603241 205.023727,93.804214 205.004913,94.005188 
z"/>
<path fill="#EC642F" opacity="1.000000" stroke="none" 
	d="
M260.062103,123.522827 
	C254.177979,126.684723 248.104797,129.572678 242.041306,132.480896 
	C240.554657,133.193924 239.099701,133.973083 237.060760,134.736328 
	C236.012604,134.459763 235.533844,134.168716 235.055084,133.877686 
	C234.142273,132.115051 233.229446,130.352432 232.539932,128.295166 
	C234.745834,127.286499 236.755341,126.638596 238.705734,125.845375 
	C243.554382,123.873413 248.376114,121.835190 253.208649,119.823578 
	C253.208649,119.823578 253.100769,119.875992 253.221222,120.052658 
	C253.609161,120.468880 253.876648,120.708427 254.144135,120.947968 
	C254.144135,120.947968 254.581970,120.970436 254.891296,121.132713 
	C255.200607,121.294991 255.586365,121.402420 255.586365,121.402420 
	C255.586365,121.402420 255.966461,121.239197 255.966461,121.239197 
	C257.269836,121.911583 258.573242,122.583977 260.062103,123.522827 
z"/>
<path fill="#F07335" opacity="1.000000" stroke="none" 
	d="
M252.992615,119.546989 
	C248.376114,121.835190 243.554382,123.873413 238.705734,125.845375 
	C236.755341,126.638596 234.745834,127.286499 232.372009,128.009125 
	C231.711472,127.844223 231.471710,127.636589 230.971451,126.926468 
	C229.807587,125.289268 228.933807,124.120407 228.407486,122.892807 
	C233.867706,120.209038 238.980484,117.584007 244.093262,114.958984 
	C246.987701,116.396118 249.882141,117.833252 252.992615,119.546989 
z"/>
<path fill="#F08641" opacity="1.000000" stroke="none" 
	d="
M243.967239,114.677567 
	C238.980484,117.584007 233.867706,120.209038 228.231842,122.624001 
	C226.449417,120.953995 225.190079,119.494049 223.930756,118.034103 
	C223.704208,117.519646 223.477661,117.005188 223.143250,116.230423 
	C228.998886,113.921959 234.682938,109.647865 241.758636,113.812500 
	C242.686768,114.106316 243.263992,114.251236 243.967239,114.677567 
z"/>
<path fill="#DC0A08" opacity="1.000000" stroke="none" 
	d="
M289.375305,155.895233 
	C289.082153,155.384720 289.021637,154.607895 288.921326,153.443665 
	C288.961029,150.986755 289.040497,148.917297 289.179840,146.421692 
	C289.362457,149.206680 289.485199,152.417801 289.375305,155.895233 
z"/>
<path fill="#DC58F4" opacity="1.000000" stroke="none" 
	d="
M218.176056,168.589172 
	C217.482147,167.521637 216.774963,166.101349 216.051270,164.307205 
	C216.744110,165.367706 217.453430,166.802048 218.176056,168.589172 
z"/>
<path fill="#0CC9C7" opacity="1.000000" stroke="none" 
	d="
M167.656738,214.336731 
	C167.377441,212.899933 167.218140,211.088211 167.061996,208.858032 
	C167.302338,210.280304 167.539536,212.121048 167.656738,214.336731 
z"/>
<path fill="#9612DC" opacity="1.000000" stroke="none" 
	d="
M113.974915,87.640610 
	C113.590073,88.004158 113.177483,88.000938 112.455994,87.980576 
	C112.152031,87.117332 112.156960,86.271233 112.333115,85.152725 
	C112.985283,85.678162 113.466225,86.475998 113.974915,87.640610 
z"/>
<path fill="#EA4B24" opacity="1.000000" stroke="none" 
	d="
M217.989059,153.987320 
	C217.609543,154.595917 217.230026,155.204514 216.592117,155.927856 
	C216.216110,155.300430 216.098495,154.558273 215.956543,153.439835 
	C215.932205,153.063568 216.021835,152.983810 216.332443,153.019592 
	C217.091721,153.366028 217.540390,153.676666 217.989059,153.987320 
z"/>
<path fill="#EC642F" opacity="1.000000" stroke="none" 
	d="
M263.531433,125.490662 
	C262.596466,125.347145 261.463257,124.909409 260.252686,124.086090 
	C261.227936,124.199150 262.280548,124.697792 263.531433,125.490662 
z"/>
<path fill="#EA4B24" opacity="1.000000" stroke="none" 
	d="
M280.977753,135.667953 
	C280.147400,135.478180 279.192657,134.986237 278.167908,134.152771 
	C279.016418,134.329422 279.934875,134.847595 280.977753,135.667953 
z"/>
<path fill="#DC0A08" opacity="1.000000" stroke="none" 
	d="
M287.270508,160.673767 
	C287.490845,159.714859 287.986053,158.600128 288.703918,157.273163 
	C288.466187,158.213272 288.005768,159.365616 287.270508,160.673767 
z"/>
<path fill="#F19247" opacity="1.000000" stroke="none" 
	d="
M184.872467,107.361633 
	C185.491150,107.839149 186.180908,108.631775 186.925323,109.749832 
	C186.301178,109.275749 185.622375,108.476242 184.872467,107.361633 
z"/>
<path fill="#EC642F" opacity="1.000000" stroke="none" 
	d="
M208.998917,138.001572 
	C208.993637,138.478073 208.988373,138.954590 208.974304,139.788834 
	C208.324173,139.323578 207.682861,138.500595 207.020798,137.339966 
	C207.000046,137.002304 207.059189,136.956268 207.301819,137.087433 
	C208.029266,137.479584 208.514084,137.740585 208.998917,138.001572 
z"/>
<path fill="#F19247" opacity="1.000000" stroke="none" 
	d="
M205.033051,92.574738 
	C204.263229,92.412239 203.317764,91.986488 202.195465,91.288864 
	C202.964874,91.448486 203.911133,91.879982 205.033051,92.574738 
z"/>
<path fill="#9612DC" opacity="1.000000" stroke="none" 
	d="
M160.843231,74.573883 
	C160.589767,73.953278 160.466217,72.971397 160.534698,71.641937 
	C160.808868,72.267113 160.891022,73.239853 160.843231,74.573883 
z"/>
<path fill="#DC0A08" opacity="1.000000" stroke="none" 
	d="
M285.392029,163.083649 
	C285.536194,162.558716 285.969452,161.948349 286.645935,161.191772 
	C286.486511,161.696442 286.083832,162.347336 285.392029,163.083649 
z"/>
<path fill="#F19247" opacity="1.000000" stroke="none" 
	d="
M183.318634,105.272621 
	C183.653229,104.998039 184.041275,105.000275 184.720795,105.002548 
	C184.994110,105.481979 184.975952,105.961357 184.919495,106.800621 
	C184.378159,106.623474 183.875137,106.086456 183.318634,105.272621 
z"/>
<path fill="#B12BE8" opacity="1.000000" stroke="none" 
	d="
M115.693542,109.432053 
	C116.048676,109.673531 116.429802,110.291466 116.847488,111.282890 
	C116.495880,111.040421 116.107704,110.424461 115.693542,109.432053 
z"/>
<path fill="#F19247" opacity="1.000000" stroke="none" 
	d="
M201.817078,90.739304 
	C201.450546,90.776718 200.929459,90.563744 200.213654,90.141487 
	C200.566788,90.117783 201.114655,90.303345 201.817078,90.739304 
z"/>
<path fill="#EC642F" opacity="1.000000" stroke="none" 
	d="
M206.970718,137.025635 
	C206.573395,136.641693 206.205383,136.234436 205.858521,135.473999 
	C205.879684,135.120804 206.022156,134.980652 206.225449,135.181152 
	C206.638885,135.906509 206.849045,136.431396 207.059189,136.956268 
	C207.059189,136.956268 207.000046,137.002304 206.970718,137.025635 
z"/>
<path fill="#DC58F4" opacity="1.000000" stroke="none" 
	d="
M216.052307,163.681183 
	C215.755478,163.517410 215.450714,163.052536 215.065491,162.317001 
	C215.338165,162.490906 215.691284,162.935501 216.052307,163.681183 
z"/>
<path fill="#12E0AD" opacity="1.000000" stroke="none" 
	d="
M157.241211,184.546631 
	C156.912231,184.412994 156.541245,183.991058 156.117111,183.284393 
	C156.442383,183.419235 156.820770,183.838791 157.241211,184.546631 
z"/>
<path fill="#A51EE3" opacity="1.000000" stroke="none" 
	d="
M114.903137,107.328964 
	C115.218155,107.556175 115.495712,108.099602 115.753372,108.959702 
	C115.444206,108.732635 115.154945,108.188911 114.903137,107.328964 
z"/>
<path fill="#17EC9E" opacity="1.000000" stroke="none" 
	d="
M143.015289,165.994720 
	C143.457245,166.307510 143.850800,166.671570 144.228287,167.411209 
	C144.212234,167.786789 143.975876,168.021744 143.780334,167.826447 
	C143.347687,167.137970 143.110596,166.644791 142.873505,166.151611 
	C142.873505,166.151611 142.966888,166.045975 143.015289,165.994720 
z"/>
<path fill="#12E0AD" opacity="1.000000" stroke="none" 
	d="
M157.960693,185.630463 
	C157.710709,185.714310 157.499527,185.483047 157.265137,184.970184 
	C157.430984,184.955490 157.683517,185.164413 157.960693,185.630463 
z"/>
<path fill="#F19247" opacity="1.000000" stroke="none" 
	d="
M205.288635,93.993416 
	C205.023727,93.804214 205.042557,93.603241 205.113922,93.102997 
	C205.432327,93.016296 205.698196,93.228859 206.051865,93.698456 
	C205.950577,93.964211 205.761459,93.972923 205.288635,93.993416 
z"/>
<path fill="#B12BE8" opacity="1.000000" stroke="none" 
	d="
M170.194656,103.613266 
	C169.966339,103.630379 169.662582,103.288544 169.210190,102.635361 
	C169.414108,102.634117 169.766663,102.944221 170.194656,103.613266 
z"/>
<path fill="#17EC9E" opacity="1.000000" stroke="none" 
	d="
M145.387085,168.634033 
	C145.621262,168.863541 145.855438,169.093033 146.143738,169.569214 
	C146.197845,169.815887 146.061325,169.928391 145.810913,169.837799 
	C145.330414,169.535233 145.133469,169.295990 145.073853,168.930450 
	C145.178040,168.831406 145.387085,168.634033 145.387085,168.634033 
z"/>
<path fill="#17EC9E" opacity="1.000000" stroke="none" 
	d="
M144.331635,167.670547 
	C144.772034,167.676224 145.025146,167.881744 145.298737,168.402451 
	C145.387085,168.634033 145.178040,168.831406 144.883911,168.787598 
	C144.350449,168.532608 144.145813,168.291931 143.975876,168.021744 
	C143.975876,168.021744 144.212234,167.786789 144.331635,167.670547 
z"/>
<path fill="#F08641" opacity="1.000000" stroke="none" 
	d="
M208.028564,94.680511 
	C207.830063,94.822510 207.560959,94.659225 207.156586,94.277817 
	C207.306381,94.209671 207.618576,94.314857 208.028564,94.680511 
z"/>
<path fill="#F19247" opacity="1.000000" stroke="none" 
	d="
M182.026337,103.309753 
	C182.219620,103.300385 182.451675,103.581703 182.797379,104.113953 
	C182.629059,104.110062 182.347092,103.855255 182.026337,103.309753 
z"/>
<path fill="#B12BE8" opacity="1.000000" stroke="none" 
	d="
M171.121704,104.819046 
	C170.916763,104.842247 170.642868,104.547653 170.220901,103.989639 
	C170.399475,103.984558 170.726105,104.242905 171.121704,104.819046 
z"/>
<path fill="#EC642F" opacity="1.000000" stroke="none" 
	d="
M205.809433,135.191895 
	C205.499466,135.032867 205.259766,134.802765 204.977631,134.319336 
	C204.935196,134.065994 204.993576,134.013809 205.211975,134.131943 
	C205.666504,134.462143 205.863754,134.705658 206.022156,134.980652 
	C206.022156,134.980652 205.879684,135.120804 205.809433,135.191895 
z"/>
<path fill="#BD38EB" opacity="1.000000" stroke="none" 
	d="
M189.267715,126.564789 
	C189.033386,126.596130 188.709488,126.276802 188.219757,125.656708 
	C188.428650,125.642006 188.803391,125.928062 189.267715,126.564789 
z"/>
<path fill="#BD38EB" opacity="1.000000" stroke="none" 
	d="
M123.946167,125.245781 
	C124.145088,125.252609 124.406792,125.596817 124.810852,126.234222 
	C124.638458,126.212677 124.323708,125.897919 123.946167,125.245781 
z"/>
<path fill="#BD38EB" opacity="1.000000" stroke="none" 
	d="
M186.022278,122.785141 
	C185.833511,122.816948 185.579880,122.566017 185.181000,122.091202 
	C185.342987,122.079010 185.650208,122.290703 186.022278,122.785141 
z"/>
<path fill="#F07335" opacity="1.000000" stroke="none" 
	d="
M255.743683,121.082825 
	C255.966461,121.239197 255.586365,121.402420 255.586365,121.402420 
	C255.586365,121.402420 255.200607,121.294991 255.101685,121.194229 
	C255.175491,121.037796 255.348190,120.982124 255.743683,121.082825 
z"/>
<path fill="#F07335" opacity="1.000000" stroke="none" 
	d="
M254.053619,120.671371 
	C253.876648,120.708427 253.609161,120.468880 253.198883,119.997017 
	C253.358429,119.974724 253.660767,120.184746 254.053619,120.671371 
z"/>
<path fill="#F07C3A" opacity="1.000000" stroke="none" 
	d="
M190.834290,115.386703 
	C191.106140,115.176949 191.306107,115.348717 191.338531,115.795486 
	C191.168518,115.834702 191.032318,115.733948 190.834290,115.386703 
z"/>
<path fill="#F07C3A" opacity="1.000000" stroke="none" 
	d="
M190.016724,114.304321 
	C190.199051,114.274277 190.439987,114.517654 190.807587,114.987572 
	C190.647964,115.001991 190.361664,114.789871 190.016724,114.304321 
z"/>
<path fill="#B12BE8" opacity="1.000000" stroke="none" 
	d="
M116.909180,112.242073 
	C117.120529,112.257607 117.326538,112.579628 117.583397,113.189026 
	C117.390778,113.167130 117.147308,112.857841 116.909180,112.242073 
z"/>
<path fill="#D450F1" opacity="1.000000" stroke="none" 
	d="
M198.985886,197.006638 
	C198.474792,193.212845 197.963684,189.419037 197.227386,185.311295 
	C196.758438,184.187820 196.514679,183.378281 196.145157,182.275162 
	C203.115738,179.364517 210.212082,176.747467 217.670410,174.067413 
	C222.279907,179.327301 220.722229,190.447723 214.910522,193.285965 
	C210.097626,195.636429 204.861008,197.119293 199.405548,198.660309 
	C198.994614,197.891602 198.990250,197.449112 198.985886,197.006638 
z"/>
<path fill="#EA3D1C" opacity="1.000000" stroke="none" 
	d="
M218.345154,153.926514 
	C217.540390,153.676666 217.091721,153.366028 216.377319,152.979767 
	C213.708389,146.053619 217.867249,142.703201 223.082489,140.012466 
	C226.866959,138.059921 230.736618,136.272507 234.811691,134.144577 
	C235.533844,134.168716 236.012604,134.459763 236.738129,134.882736 
	C238.212189,136.822250 239.439468,138.629822 240.837158,140.716431 
	C241.006180,141.439743 241.004791,141.884003 241.004913,142.661301 
	C233.571350,146.618118 226.136307,150.241913 218.345154,153.926514 
z"/>
<path fill="#13E6A6" opacity="1.000000" stroke="none" 
	d="
M143.780334,167.826447 
	C144.145813,168.291931 144.350449,168.532608 144.779724,168.886627 
	C145.133469,169.295990 145.330414,169.535233 145.741928,169.893188 
	C146.260864,172.561005 147.477737,175.121628 143.739502,176.673767 
	C142.916718,177.015396 142.774033,180.808960 143.441925,182.591965 
	C145.577560,188.293182 145.465332,189.207504 140.063644,191.950378 
	C137.253296,193.377426 134.319199,194.563889 131.529251,196.027283 
	C126.253166,198.794678 125.159462,198.229706 125.003441,192.413895 
	C124.981163,191.583542 125.009521,190.751816 125.027946,189.491486 
	C129.481140,187.434631 134.174896,186.271774 138.278198,184.028778 
	C141.422836,182.309830 140.071732,179.315964 138.338577,176.784393 
	C134.345871,170.952316 135.420502,168.043365 142.509827,166.132843 
	C143.110596,166.644791 143.347687,167.137970 143.780334,167.826447 
z"/>
<path fill="#EB66F9" opacity="1.000000" stroke="none" 
	d="
M198.556671,197.004761 
	C198.990250,197.449112 198.994614,197.891602 199.001572,198.665955 
	C197.537186,203.203491 196.070221,207.409134 194.317352,211.820770 
	C191.802185,211.931122 189.573334,211.822388 187.343216,211.754852 
	C187.031509,211.745392 186.715088,211.943024 186.398468,212.036758 
	C175.775803,215.181458 173.963379,213.849701 174.043457,202.494659 
	C182.080460,200.360611 190.103958,198.681747 198.556671,197.004761 
z"/>
<path fill="#EC5628" opacity="1.000000" stroke="none" 
	d="
M206.225449,135.181152 
	C205.863754,134.705658 205.666504,134.462143 205.242523,134.107452 
	C203.094513,129.709763 204.679276,127.298164 208.815506,125.498276 
	C213.743439,123.353882 218.419342,120.630325 223.567596,118.095894 
	C225.190079,119.494049 226.449417,120.953995 227.884384,122.682739 
	C228.933807,124.120407 229.807587,125.289268 230.829468,126.734802 
	C225.704727,129.520737 220.413773,131.992889 215.168671,134.558838 
	C213.263824,135.490692 211.468491,136.646423 209.311066,137.850784 
	C208.514084,137.740585 208.029266,137.479584 207.301819,137.087433 
	C206.849045,136.431396 206.638885,135.906509 206.225449,135.181152 
z"/>
</svg>